<svg version="1.1" viewBox="0.0 0.0 960.0 720.0" fill="none" stroke="none" stroke-linecap="square" stroke-miterlimit="10" xmlns:xlink="http://www.w3.org/1999/xlink" xmlns="http://www.w3.org/2000/svg"><clipPath id="p.0"><path d="m0 0l960.0 0l0 720.0l-960.0 0l0 -720.0z" clip-rule="nonzero"/></clipPath><g clip-path="url(#p.0)"><path fill="#000000" fill-opacity="0.0" d="m0 0l960.0 0l0 720.0l-960.0 0z" fill-rule="evenodd"/><defs><radialGradient id="p.1" gradientUnits="userSpaceOnUse" gradientTransform="matrix(27.737454601950695 0.0 0.0 27.737454601950695 0.0 0.0)" spreadMethod="pad" cx="23.617023439472156" cy="1.0168461675450662" fx="23.617023439472156" fy="1.0168461675450662" r="27.737455368041992"><stop offset="0.0" stop-color="#5b0f00"/><stop offset="0.5" stop-color="#cc0000"/><stop offset="1.0" stop-color="#f6b26b"/></radialGradient></defs><path fill="url(#p.1)" d="m265.7533 75.60088l0 0c0 -26.176174 21.21997 -47.396156 47.39615 -47.396156l294.5305 0c12.570251 0 24.625671 4.9935093 33.51416 13.882013c8.888489 8.888504 13.882019 20.943905 13.882019 33.514145l0 568.7982c0 26.176208 -21.21997 47.39618 -47.39618 47.39618l-294.5305 0c-26.176178 0 -47.39615 -21.21997 -47.39615 -47.39618z" fill-rule="evenodd"/><path stroke="#000000" stroke-width="1.0" stroke-linejoin="round" stroke-linecap="butt" d="m265.7533 75.60088l0 0c0 -26.176174 21.21997 -47.396156 47.39615 -47.396156l294.5305 0c12.570251 0 24.625671 4.9935093 33.51416 13.882013c8.888489 8.888504 13.882019 20.943905 13.882019 33.514145l0 568.7982c0 26.176208 -21.21997 47.39618 -47.39618 47.39618l-294.5305 0c-26.176178 0 -47.39615 -21.21997 -47.39615 -47.39618z" fill-rule="evenodd"/><defs><linearGradient id="p.2" gradientUnits="userSpaceOnUse" gradientTransform="matrix(9.905061141682692 0.0 0.0 9.905061141682692 0.0 0.0)" spreadMethod="pad" x1="61.693370577997015" y1="69.8426052797719" x2="71.59843171967971" y2="69.8426052797719"><stop offset="0.0" stop-color="#ffffff"/><stop offset="0.11" stop-color="#ffffff"/><stop offset="0.13" stop-color="#000000"/><stop offset="0.16" stop-color="#000000"/><stop offset="0.18" stop-color="#ffffff"/><stop offset="0.32" stop-color="#ffffff"/><stop offset="0.35" stop-color="#000000"/><stop offset="0.37" stop-color="#000000"/><stop offset="0.4" stop-color="#ffffff"/><stop offset="0.55" stop-color="#ffffff"/><stop offset="0.57" stop-color="#000000"/><stop offset="0.59" stop-color="#000000"/><stop offset="0.61" stop-color="#ffffff"/><stop offset="0.73" stop-color="#ffffff"/><stop offset="0.75" stop-color="#000000"/><stop offset="0.77" stop-color="#000000"/><stop offset="0.79" stop-color="#ffffff"/><stop offset="0.91" stop-color="#ffffff"/><stop offset="0.94" stop-color="#000000"/><stop offset="1.0" stop-color="#000000"/></linearGradient></defs><path fill="url(#p.2)" d="m611.0766 40.148666l0 0c0 -6.5964584 5.347473 -11.943941 11.94397 -11.943941l74.22235 0c3.1677246 0 6.2056885 1.2583752 8.445618 3.4982986c2.2399292 2.2399235 3.498291 5.27791 3.498291 8.445642l0 639.70264c0 6.5964966 -5.347473 11.94397 -11.943909 11.94397l-74.22235 0c-6.5964966 0 -11.94397 -5.347473 -11.94397 -11.94397z" fill-rule="evenodd"/><path stroke="#000000" stroke-width="1.0" stroke-linejoin="round" stroke-linecap="butt" d="m611.0766 40.148666l0 0c0 -6.5964584 5.347473 -11.943941 11.94397 -11.943941l74.22235 0c3.1677246 0 6.2056885 1.2583752 8.445618 3.4982986c2.2399292 2.2399235 3.498291 5.27791 3.498291 8.445642l0 639.70264c0 6.5964966 -5.347473 11.94397 -11.943909 11.94397l-74.22235 0c-6.5964966 0 -11.94397 -5.347473 -11.94397 -11.94397z" fill-rule="evenodd"/><path fill="#000000" fill-opacity="0.0" d="m325.00186 116.22637l270.80313 0l0 77.57481l-270.80313 0z" fill-rule="evenodd"/><path fill="#000000" d="m399.09872 161.41574q0 1.796875 -0.46875 3.25q-0.453125 1.4375 -1.203125 2.546875q-0.75 1.09375 -1.765625 1.875q-1.0 0.765625 -2.078125 1.265625q-1.078125 0.484375 -2.1875 0.71875q-1.109375 0.234375 -2.09375 0.234375l-23.515625 0l0 -6.09375l23.515625 0q1.75 0 2.71875 -1.03125q0.984375 -1.03125 0.984375 -2.765625q0 -0.84375 -0.265625 -1.546875q-0.25 -0.703125 -0.734375 -1.21875q-0.484375 -0.515625 -1.171875 -0.796875q-0.6875 -0.28125 -1.53125 -0.28125l-14.015625 0q-1.484375 0 -3.203125 -0.53125q-1.703125 -0.53125 -3.171875 -1.703125q-1.453125 -1.171875 -2.4375 -3.0625q-0.96875 -1.90625 -0.96875 -4.640625q0 -2.75 0.96875 -4.625q0.984375 -1.890625 2.4375 -3.078125q1.46875 -1.1875 3.171875 -1.703125q1.71875 -0.53125 3.203125 -0.53125l20.734375 0l0 6.09375l-20.734375 0q-1.734375 0 -2.71875 1.0625q-0.96875 1.046875 -0.96875 2.78125q0 1.75 0.96875 2.78125q0.984375 1.015625 2.71875 1.015625l14.015625 0l0.046875 0q0.984375 0.015625 2.078125 0.265625q1.109375 0.25 2.1875 0.765625q1.09375 0.515625 2.078125 1.296875q0.984375 0.78125 1.75 1.890625q0.765625 1.09375 1.203125 2.53125q0.453125 1.421875 0.453125 3.234375zm26.34375 -9.359375l-10.640625 0l0 19.25l-6.171875 0l0 -19.25l-7.921875 0l0 -6.09375l7.921875 0l0 -8.265625l6.171875 0l0 8.265625l10.640625 0l0 6.09375zm31.46878 10.6875q0 1.578125 -0.40625 2.828125q-0.390625 1.25 -1.046875 2.203125q-0.65625 0.953125 -1.53125 1.625q-0.859375 0.65625 -1.8125305 1.078125q-0.9375 0.421875 -1.921875 0.625q-0.96875 0.203125 -1.828125 0.203125l-11.0 0q-1.265625 0 -2.765625 -0.4375q-1.5 -0.453125 -2.78125 -1.46875q-1.265625 -1.03125 -2.125 -2.65625q-0.859375 -1.625 -0.859375 -4.0l0 -8.25q0 -2.34375 0.859375 -3.96875q0.859375 -1.625 2.125 -2.640625q1.28125 -1.03125 2.78125 -1.46875q1.5 -0.453125 2.765625 -0.453125l11.0 0q2.34375 0 3.984375 0.84375q1.6406555 0.84375 2.6406555 2.125q1.015625 1.28125 1.46875 2.78125q0.453125 1.5 0.453125 2.78125l0 8.25zm-6.0937805 -8.203125q0 -1.265625 -0.640625 -1.875q-0.625 -0.609375 -1.8125 -0.609375l-10.953125 0q-1.21875 0 -1.859375 0.625q-0.625 0.625 -0.625 1.8125l0 8.25q0 1.203125 0.625 1.84375q0.640625 0.625 1.859375 0.625l10.953125 0q1.234375 0 1.84375 -0.625q0.609375 -0.640625 0.609375 -1.84375l0 -8.203125zm33.445343 -2.484375l-13.703125 0q-1.25 0 -1.890625 0.625q-0.625 0.625 -0.625 1.8125l0 16.8125l-6.09375 0l0 -16.8125q0 -1.5625 0.390625 -2.796875q0.40625 -1.25 1.078125 -2.203125q0.671875 -0.953125 1.53125 -1.609375q0.875 -0.671875 1.8125 -1.09375q0.953125 -0.421875 1.921875 -0.625q0.984375 -0.203125 1.828125 -0.203125l13.75 0l0 6.09375zm10.1953125 -11.296875l-6.09375 0l0 -5.5l6.09375 0l0 5.5zm0 30.546875l-6.09375 0l0 -25.34375l6.09375 0l0 25.34375zm33.101562 -16.953125q0 1.265625 -0.453125 2.734375q-0.4375 1.46875 -1.4375 2.71875q-1.0 1.25 -2.609375 2.09375q-1.59375 0.84375 -3.890625 0.84375l-11.0 0l0 -5.78125l11.0 0q1.234375 0 1.90625 -0.765625q0.6875 -0.765625 0.6875 -1.890625q0 -1.1875 -0.765625 -1.859375q-0.75 -0.6875 -1.828125 -0.6875l-11.0 0q-1.234375 0 -1.921875 0.765625q-0.671875 0.75 -0.671875 1.875l0 8.515625q0 1.21875 0.75 1.90625q0.765625 0.671875 1.890625 0.671875l10.953125 0l0 5.8125l-11.0 0q-1.265625 0 -2.734375 -0.4375q-1.453125 -0.453125 -2.71875 -1.453125q-1.25 -1.0 -2.09375 -2.59375q-0.84375 -1.609375 -0.84375 -3.90625l0 -8.5625q0 -1.265625 0.4375 -2.71875q0.453125 -1.46875 1.453125 -2.71875q1.0 -1.265625 2.59375 -2.109375q1.609375 -0.84375 3.90625 -0.84375l11.0 0q1.265625 0 2.71875 0.453125q1.46875 0.4375 2.71875 1.4375q1.265625 1.0 2.109375 2.609375q0.84375 1.59375 0.84375 3.890625zm28.59375 8.390625q0 1.578125 -0.40625 2.828125q-0.390625 1.25 -1.046875 2.203125q-0.65625 0.953125 -1.53125 1.625q-0.859375 0.65625 -1.8125 1.078125q-0.953125 0.421875 -1.921875 0.625q-0.96875 0.203125 -1.84375 0.203125l-16.5 0l0 -6.09375l16.453125 0q1.25 0 1.875 -0.625q0.640625 -0.640625 0.640625 -1.84375q-0.125 -2.4375 -2.46875 -2.4375l-9.4375 0q-2.015625 0 -3.421875 -0.703125q-1.40625 -0.703125 -2.296875 -1.75q-0.875 -1.0625 -1.265625 -2.28125q-0.375 -1.21875 -0.375 -2.265625q0 -2.046875 0.71875 -3.4375q0.734375 -1.390625 1.828125 -2.25q1.109375 -0.875 2.390625 -1.265625q1.296875 -0.390625 2.421875 -0.390625l14.96875 0l0 6.09375l-14.921875 0q-0.46875 0 -0.75 0.109375q-0.265625 0.109375 -0.390625 0.28125q-0.125 0.171875 -0.15625 0.375q-0.015625 0.203125 -0.015625 0.390625q0.015625 0.375 0.125 0.59375q0.125 0.203125 0.296875 0.296875q0.1875 0.09375 0.40625 0.109375q0.21875 0 0.4375 0l9.4375 0q2.34375 0 3.984375 0.84375q1.640625 0.84375 2.640625 2.125q1.015625 1.28125 1.46875 2.78125q0.46875 1.5 0.46875 2.78125z" fill-rule="nonzero"/><path fill="#000000" fill-opacity="0.0" d="m305.2344 475.6816l310.3622 0l0 58.17325l-310.3622 0z" fill-rule="evenodd"/><path fill="#000000" d="m404.5405 504.5891q2.203125 0.46875 3.296875 1.5q1.515625 1.4375 1.515625 3.515625q0 1.578125 -1.0 3.03125q-1.0 1.4375 -2.75 2.109375q-1.734375 0.65625 -5.3125 0.65625l-10.0 0l0 -0.578125l0.796875 0q1.328125 0 1.90625 -0.84375q0.359375 -0.546875 0.359375 -2.328125l0 -13.6875q0 -1.96875 -0.453125 -2.484375q-0.609375 -0.6875 -1.8125 -0.6875l-0.796875 0l0 -0.578125l9.15625 0q2.5625 0 4.109375 0.375q2.34375 0.5625 3.578125 2.0q1.234375 1.421875 1.234375 3.28125q0 1.59375 -0.96875 2.859375q-0.96875 1.25 -2.859375 1.859375zm-8.1875 -0.84375q0.578125 0.109375 1.3125 0.171875q0.75 0.046875 1.640625 0.046875q2.28125 0 3.421875 -0.484375q1.15625 -0.5 1.765625 -1.515625q0.609375 -1.015625 0.609375 -2.21875q0 -1.859375 -1.515625 -3.171875q-1.515625 -1.3125 -4.421875 -1.3125q-1.5625 0 -2.8125 0.34375l0 8.140625zm0 10.125q1.8125 0.421875 3.578125 0.421875q2.828125 0 4.3125 -1.265625q1.484375 -1.28125 1.484375 -3.15625q0 -1.234375 -0.671875 -2.375q-0.671875 -1.140625 -2.1875 -1.796875q-1.515625 -0.65625 -3.75 -0.65625q-0.96875 0 -1.65625 0.03125q-0.6875 0.03125 -1.109375 0.109375l0 8.6875zm14.9375 -12.78125l6.671875 0l0 0.578125l-0.328125 0q-0.703125 0 -1.0625 0.3125q-0.34375 0.296875 -0.34375 0.75q0 0.609375 0.515625 1.6875l3.484375 7.21875l3.203125 -7.90625q0.265625 -0.640625 0.265625 -1.265625q0 -0.28125 -0.109375 -0.421875q-0.125 -0.171875 -0.390625 -0.265625q-0.265625 -0.109375 -0.9375 -0.109375l0 -0.578125l4.65625 0l0 0.578125q-0.578125 0.0625 -0.890625 0.25q-0.3125 0.1875 -0.6875 0.703125q-0.140625 0.21875 -0.53125 1.203125l-5.828125 14.28125q-0.84375 2.078125 -2.21875 3.140625q-1.359375 1.0625 -2.625 1.0625q-0.921875 0 -1.515625 -0.53125q-0.59375 -0.53125 -0.59375 -1.21875q0 -0.65625 0.421875 -1.0625q0.4375 -0.390625 1.1875 -0.390625q0.515625 0 1.40625 0.34375q0.625 0.234375 0.78125 0.234375q0.46875 0 1.015625 -0.484375q0.5625 -0.484375 1.125 -1.875l1.015625 -2.484375l-5.140625 -10.796875q-0.234375 -0.484375 -0.75 -1.203125q-0.390625 -0.546875 -0.640625 -0.734375q-0.359375 -0.25 -1.15625 -0.4375l0 -0.578125zm42.15625 8.453125l0.515625 0.109375l-1.8125 5.75l-16.40625 0l0 -0.578125l0.796875 0q1.34375 0 1.921875 -0.875q0.328125 -0.5 0.328125 -2.3125l0 -13.671875q0 -1.984375 -0.4375 -2.484375q-0.609375 -0.6875 -1.8125 -0.6875l-0.796875 0l0 -0.578125l9.59375 0l0 0.578125q-1.6875 -0.015625 -2.375 0.3125q-0.671875 0.328125 -0.921875 0.828125q-0.25 0.5 -0.25 2.390625l0 13.3125q0 1.296875 0.25 1.78125q0.1875 0.328125 0.578125 0.484375q0.390625 0.15625 2.4375 0.15625l1.546875 0q2.4375 0 3.421875 -0.359375q0.984375 -0.359375 1.796875 -1.265625q0.8125 -0.921875 1.625 -2.890625zm-0.375 -8.453125l6.671875 0l0 0.578125l-0.328125 0q-0.703125 0 -1.0625 0.3125q-0.34375 0.296875 -0.34375 0.75q0 0.609375 0.515625 1.6875l3.484375 7.21875l3.203125 -7.90625q0.265625 -0.640625 0.265625 -1.265625q0 -0.28125 -0.109375 -0.421875q-0.125 -0.171875 -0.390625 -0.265625q-0.265625 -0.109375 -0.9375 -0.109375l0 -0.578125l4.65625 0l0 0.578125q-0.578125 0.0625 -0.890625 0.25q-0.3125 0.1875 -0.6875 0.703125q-0.140625 0.21875 -0.53125 1.203125l-5.828125 14.28125q-0.84375 2.078125 -2.21875 3.140625q-1.359375 1.0625 -2.625 1.0625q-0.921875 0 -1.515625 -0.53125q-0.59375 -0.53125 -0.59375 -1.21875q0 -0.65625 0.421875 -1.0625q0.4375 -0.390625 1.1875 -0.390625q0.515625 0 1.40625 0.34375q0.625 0.234375 0.78125 0.234375q0.46875 0 1.015625 -0.484375q0.5625 -0.484375 1.125 -1.875l1.015625 -2.484375l-5.140625 -10.796875q-0.234375 -0.484375 -0.75 -1.203125q-0.390625 -0.546875 -0.640625 -0.734375q-0.359375 -0.25 -1.15625 -0.4375l0 -0.578125zm20.984375 2.609375q2.515625 -3.03125 4.796875 -3.03125q1.171875 0 2.015625 0.59375q0.84375 0.578125 1.34375 1.921875q0.34375 0.9375 0.34375 2.875l0 6.109375q0 1.359375 0.21875 1.84375q0.171875 0.390625 0.546875 0.609375q0.390625 0.21875 1.421875 0.21875l0 0.5625l-7.078125 0l0 -0.5625l0.296875 0q1.0 0 1.390625 -0.296875q0.40625 -0.3125 0.5625 -0.90625q0.0625 -0.234375 0.0625 -1.46875l0 -5.859375q0 -1.953125 -0.515625 -2.828125q-0.5 -0.890625 -1.703125 -0.890625q-1.859375 0 -3.703125 2.03125l0 7.546875q0 1.453125 0.171875 1.796875q0.21875 0.453125 0.59375 0.671875q0.390625 0.203125 1.5625 0.203125l0 0.5625l-7.078125 0l0 -0.5625l0.3125 0q1.09375 0 1.46875 -0.546875q0.390625 -0.5625 0.390625 -2.125l0 -5.3125q0 -2.578125 -0.125 -3.140625q-0.109375 -0.5625 -0.359375 -0.765625q-0.234375 -0.203125 -0.640625 -0.203125q-0.4375 0 -1.046875 0.234375l-0.234375 -0.5625l4.3125 -1.75l0.671875 0l0 3.03125zm14.234375 2.78125q-0.015625 3.1875 1.546875 5.0q1.5625 1.8125 3.671875 1.8125q1.40625 0 2.4375 -0.765625q1.046875 -0.78125 1.75 -2.65625l0.484375 0.3125q-0.328125 2.140625 -1.90625 3.90625q-1.578125 1.75 -3.953125 1.75q-2.578125 0 -4.421875 -2.0q-1.828125 -2.015625 -1.828125 -5.40625q0 -3.671875 1.875 -5.71875q1.890625 -2.0625 4.734375 -2.0625q2.40625 0 3.953125 1.59375q1.546875 1.578125 1.546875 4.234375l-9.890625 0zm0 -0.90625l6.625 0q-0.078125 -1.375 -0.328125 -1.9375q-0.390625 -0.875 -1.171875 -1.375q-0.765625 -0.5 -1.609375 -0.5q-1.296875 0 -2.328125 1.015625q-1.015625 1.0 -1.1875 2.796875zm15.953125 -9.1875l0 4.703125l3.34375 0l0 1.09375l-3.34375 0l0 9.28125q0 1.390625 0.390625 1.875q0.40625 0.484375 1.03125 0.484375q0.515625 0 1.0 -0.3125q0.484375 -0.328125 0.75 -0.953125l0.609375 0q-0.546875 1.53125 -1.546875 2.3125q-1.0 0.765625 -2.0625 0.765625q-0.71875 0 -1.40625 -0.390625q-0.6875 -0.40625 -1.015625 -1.140625q-0.328125 -0.75 -0.328125 -2.296875l0 -9.625l-2.265625 0l0 -0.515625q0.859375 -0.34375 1.75 -1.15625q0.90625 -0.828125 1.609375 -1.953125q0.359375 -0.59375 1.0 -2.171875l0.484375 0zm8.8906555 0l0 4.703125l3.34375 0l0 1.09375l-3.34375 0l0 9.28125q0 1.390625 0.390625 1.875q0.40625 0.484375 1.03125 0.484375q0.515625 0 1.0 -0.3125q0.484375 -0.328125 0.75 -0.953125l0.609375 0q-0.546875 1.53125 -1.546875 2.3125q-1.0 0.765625 -2.0625 0.765625q-0.71875 0 -1.4062805 -0.390625q-0.6875 -0.40625 -1.015625 -1.140625q-0.328125 -0.75 -0.328125 -2.296875l0 -9.625l-2.265625 0l0 -0.515625q0.859375 -0.34375 1.75 -1.15625q0.90625 -0.828125 1.609375 -1.953125q0.35940552 -0.59375 1.0000305 -2.171875l0.484375 0zm7.140625 10.09375q-0.015625 3.1875 1.546875 5.0q1.5625 1.8125 3.671875 1.8125q1.40625 0 2.4375 -0.765625q1.046875 -0.78125 1.75 -2.65625l0.484375 0.3125q-0.328125 2.140625 -1.90625 3.90625q-1.578125 1.75 -3.953125 1.75q-2.578125 0 -4.421875 -2.0q-1.828125 -2.015625 -1.828125 -5.40625q0 -3.671875 1.875 -5.71875q1.890625 -2.0625 4.734375 -2.0625q2.40625 0 3.953125 1.59375q1.546875 1.578125 1.546875 4.234375l-9.890625 0zm0 -0.90625l6.625 0q-0.078125 -1.375 -0.328125 -1.9375q-0.390625 -0.875 -1.171875 -1.375q-0.765625 -0.5 -1.609375 -0.5q-1.296875 0 -2.328125 1.015625q-1.015625 1.0 -1.1875 2.796875z" fill-rule="nonzero"/></g></svg>