<svg version="1.1" viewBox="0.0 0.0 720.0 720.0" fill="none" stroke="none" stroke-linecap="square" stroke-miterlimit="10" xmlns:xlink="http://www.w3.org/1999/xlink" xmlns="http://www.w3.org/2000/svg"><clipPath id="p.0"><path d="m0 0l720.0 0l0 720.0l-720.0 0l0 -720.0z" clip-rule="nonzero"/></clipPath><g clip-path="url(#p.0)"><path fill="#000000" fill-opacity="0.0" d="m0 0l720.0 0l0 720.0l-720.0 0z" fill-rule="evenodd"/><defs><radialGradient id="p.1" gradientUnits="userSpaceOnUse" gradientTransform="matrix(28.547888807766107 0.0 0.0 28.547888807766107 0.0 0.0)" spreadMethod="pad" cx="14.402561689498413" cy="0.16218086356645067" fx="14.402561689498413" fy="0.16218086356645067" r="28.547889709472656"><stop offset="0.0" stop-color="#5b0f00"/><stop offset="0.5" stop-color="#cc0000"/><stop offset="1.0" stop-color="#f6b26b"/></radialGradient></defs><path fill="url(#p.1)" d="m12.35958 53.180218l0 0c0 -26.81359 21.736706 -48.550297 48.550293 -48.550297l301.70255 0c12.876343 0 25.225311 5.115105 34.33026 14.220053c9.10495 9.104946 14.220032 21.453905 14.220032 34.330246l0 613.6395c0 26.813599 -21.736694 48.550293 -48.550293 48.550293l-301.70255 0c-26.813587 0 -48.550293 -21.736694 -48.550293 -48.550293z" fill-rule="evenodd"/><path stroke="#000000" stroke-width="1.0" stroke-linejoin="round" stroke-linecap="butt" d="m12.35958 53.180218l0 0c0 -26.81359 21.736706 -48.550297 48.550293 -48.550297l301.70255 0c12.876343 0 25.225311 5.115105 34.33026 14.220053c9.10495 9.104946 14.220032 21.453905 14.220032 34.330246l0 613.6395c0 26.813599 -21.736694 48.550293 -48.550293 48.550293l-301.70255 0c-26.813587 0 -48.550293 -21.736694 -48.550293 -48.550293z" fill-rule="evenodd"/><defs><linearGradient id="p.2" gradientUnits="userSpaceOnUse" gradientTransform="matrix(9.922534601269266 0.0 0.0 9.922534601269266 0.0 0.0)" spreadMethod="pad" x1="36.84960969389809" y1="72.09549852803225" x2="46.77214429516736" y2="72.09549852803225"><stop offset="0.0" stop-color="#ffffff"/><stop offset="0.11" stop-color="#ffffff"/><stop offset="0.13" stop-color="#000000"/><stop offset="0.16" stop-color="#000000"/><stop offset="0.18" stop-color="#ffffff"/><stop offset="0.32" stop-color="#ffffff"/><stop offset="0.35" stop-color="#000000"/><stop offset="0.37" stop-color="#000000"/><stop offset="0.4" stop-color="#ffffff"/><stop offset="0.55" stop-color="#ffffff"/><stop offset="0.57" stop-color="#000000"/><stop offset="0.59" stop-color="#000000"/><stop offset="0.61" stop-color="#ffffff"/><stop offset="0.73" stop-color="#ffffff"/><stop offset="0.75" stop-color="#000000"/><stop offset="0.77" stop-color="#000000"/><stop offset="0.79" stop-color="#ffffff"/><stop offset="0.91" stop-color="#ffffff"/><stop offset="0.94" stop-color="#000000"/><stop offset="1.0" stop-color="#000000"/></linearGradient></defs><path fill="url(#p.2)" d="m365.6415 16.61604l0 0c0 -6.61975 5.366394 -11.986118 11.986145 -11.986118l74.484436 0c3.1789246 0 6.2276306 1.2628193 8.475464 3.510652c2.2478333 2.2478333 3.5106506 5.29655 3.5106506 8.475466l0 686.76794c0 6.619751 -5.3663635 11.986084 -11.9861145 11.986084l-74.484436 0c-6.619751 0 -11.986145 -5.366333 -11.986145 -11.986084z" fill-rule="evenodd"/><path stroke="#000000" stroke-width="1.0" stroke-linejoin="round" stroke-linecap="butt" d="m365.6415 16.61604l0 0c0 -6.61975 5.366394 -11.986118 11.986145 -11.986118l74.484436 0c3.1789246 0 6.2276306 1.2628193 8.475464 3.510652c2.2478333 2.2478333 3.5106506 5.29655 3.5106506 8.475466l0 686.76794c0 6.619751 -5.3663635 11.986084 -11.9861145 11.986084l-74.484436 0c-6.619751 0 -11.986145 -5.366333 -11.986145 -11.986084z" fill-rule="evenodd"/><path fill="#000000" fill-opacity="0.0" d="m58.733982 97.24927l251.46457 0l0 77.5748l-251.46457 0z" fill-rule="evenodd"/><path fill="#000000" d="m123.16158 142.43864q0 1.796875 -0.46875 3.25q-0.453125 1.4375 -1.203125 2.546875q-0.75 1.09375 -1.765625 1.875q-1.0 0.765625 -2.078125 1.265625q-1.078125 0.484375 -2.1875 0.71875q-1.109375 0.234375 -2.09375 0.234375l-23.515625 0l0 -6.09375l23.515625 0q1.75 0 2.71875 -1.03125q0.984375 -1.03125 0.984375 -2.765625q0 -0.84375 -0.265625 -1.546875q-0.25 -0.703125 -0.734375 -1.21875q-0.484375 -0.515625 -1.171875 -0.796875q-0.6875 -0.28125 -1.53125 -0.28125l-14.015625 0q-1.484375 0 -3.203125 -0.53125q-1.703125 -0.53125 -3.171875 -1.703125q-1.453125 -1.171875 -2.4375 -3.0625q-0.96875 -1.90625 -0.96875 -4.640625q0 -2.7500076 0.96875 -4.6250076q0.984375 -1.890625 2.4375 -3.078125q1.46875 -1.1875 3.171875 -1.703125q1.71875 -0.53125 3.203125 -0.53125l20.734375 0l0 6.09375l-20.734375 0q-1.734375 0 -2.71875 1.0625q-0.96875 1.046875 -0.96875 2.7812576q0 1.75 0.96875 2.78125q0.984375 1.015625 2.71875 1.015625l14.015625 0l0.046875 0q0.984375 0.015625 2.078125 0.265625q1.109375 0.25 2.1875 0.765625q1.09375 0.515625 2.078125 1.296875q0.984375 0.78125 1.75 1.890625q0.765625 1.09375 1.203125 2.53125q0.453125 1.421875 0.453125 3.234375zm26.343742 -9.359375l-10.640625 0l0 19.25l-6.171875 0l0 -19.25l-7.9218674 0l0 -6.0937576l7.9218674 0l0 -8.265625l6.171875 0l0 8.265625l10.640625 0l0 6.0937576zm31.46875 10.6875q0 1.578125 -0.40625 2.828125q-0.390625 1.25 -1.046875 2.203125q-0.65625 0.953125 -1.53125 1.625q-0.859375 0.65625 -1.8125 1.078125q-0.9375 0.421875 -1.921875 0.625q-0.96875 0.203125 -1.828125 0.203125l-11.0 0q-1.265625 0 -2.765625 -0.4375q-1.5 -0.453125 -2.78125 -1.46875q-1.265625 -1.03125 -2.125 -2.65625q-0.859375 -1.625 -0.859375 -4.0l0 -8.25q0 -2.34375 0.859375 -3.96875q0.859375 -1.625 2.125 -2.640625q1.28125 -1.0312576 2.78125 -1.4687576q1.5 -0.453125 2.765625 -0.453125l11.0 0q2.34375 0 3.984375 0.84375q1.640625 0.8437576 2.640625 2.1250076q1.015625 1.28125 1.46875 2.78125q0.453125 1.5 0.453125 2.78125l0 8.25zm-6.09375 -8.203125q0 -1.265625 -0.640625 -1.875q-0.625 -0.609375 -1.8125 -0.609375l-10.953125 0q-1.21875 0 -1.859375 0.625q-0.625 0.625 -0.625 1.8125l0 8.25q0 1.203125 0.625 1.84375q0.640625 0.625 1.859375 0.625l10.953125 0q1.234375 0 1.84375 -0.625q0.609375 -0.640625 0.609375 -1.84375l0 -8.203125zm33.445312 -2.484375l-13.703125 0q-1.25 0 -1.890625 0.625q-0.625 0.625 -0.625 1.8125l0 16.8125l-6.09375 0l0 -16.8125q0 -1.5625 0.390625 -2.796875q0.40625 -1.25 1.078125 -2.203125q0.671875 -0.953125 1.53125 -1.609375q0.875 -0.671875 1.8125 -1.0937576q0.953125 -0.421875 1.921875 -0.625q0.984375 -0.203125 1.828125 -0.203125l13.75 0l0 6.0937576zm10.1953125 -11.296883l-6.09375 0l0 -5.5l6.09375 0l0 5.5zm0 30.546883l-6.09375 0l0 -25.343758l6.09375 0l0 25.343758zm33.101562 -16.953125q0 1.265625 -0.453125 2.734375q-0.4375 1.46875 -1.4375 2.71875q-1.0 1.25 -2.609375 2.09375q-1.59375 0.84375 -3.890625 0.84375l-11.0 0l0 -5.78125l11.0 0q1.234375 0 1.90625 -0.765625q0.6875 -0.765625 0.6875 -1.890625q0 -1.1875 -0.765625 -1.859375q-0.75 -0.6875 -1.828125 -0.6875l-11.0 0q-1.234375 0 -1.921875 0.765625q-0.671875 0.75 -0.671875 1.875l0 8.515625q0 1.21875 0.75 1.90625q0.765625 0.671875 1.890625 0.671875l10.953125 0l0 5.8125l-11.0 0q-1.265625 0 -2.734375 -0.4375q-1.453125 -0.453125 -2.71875 -1.453125q-1.25 -1.0 -2.09375 -2.59375q-0.84375 -1.609375 -0.84375 -3.90625l0 -8.5625q0 -1.265625 0.4375 -2.71875q0.453125 -1.46875 1.453125 -2.71875q1.0 -1.265625 2.59375 -2.1093826q1.609375 -0.84375 3.90625 -0.84375l11.0 0q1.265625 0 2.71875 0.453125q1.46875 0.4375 2.71875 1.4375076q1.265625 1.0 2.109375 2.609375q0.84375 1.59375 0.84375 3.890625zm28.593765 8.390625q0 1.578125 -0.40625 2.828125q-0.390625 1.25 -1.046875 2.203125q-0.65625 0.953125 -1.53125 1.625q-0.859375 0.65625 -1.8125 1.078125q-0.953125 0.421875 -1.921875 0.625q-0.96875 0.203125 -1.84375 0.203125l-16.500015 0l0 -6.09375l16.45314 0q1.25 0 1.875 -0.625q0.640625 -0.640625 0.640625 -1.84375q-0.125 -2.4375 -2.46875 -2.4375l-9.4375 0q-2.015625 0 -3.421875 -0.703125q-1.40625 -0.703125 -2.296875 -1.75q-0.87501526 -1.0625 -1.2656403 -2.28125q-0.375 -1.21875 -0.375 -2.265625q0 -2.046875 0.71875 -3.4375q0.73439026 -1.390625 1.8281403 -2.25q1.109375 -0.8750076 2.390625 -1.2656326q1.296875 -0.390625 2.421875 -0.390625l14.96875 0l0 6.0937576l-14.921875 0q-0.46875 0 -0.75 0.109375q-0.265625 0.109375 -0.390625 0.28125q-0.125 0.171875 -0.15625 0.375q-0.015625 0.203125 -0.015625 0.390625q0.015625 0.375 0.125 0.59375q0.125 0.203125 0.296875 0.296875q0.1875 0.09375 0.40625 0.109375q0.21875 0 0.4375 0l9.4375 0q2.34375 0 3.984375 0.84375q1.640625 0.84375 2.640625 2.125q1.015625 1.28125 1.46875 2.78125q0.46875 1.5 0.46875 2.78125z" fill-rule="nonzero"/><path fill="#000000" fill-opacity="0.0" d="m59.79551 487.1945l249.32285 0l0 67.87399l-249.32285 0z" fill-rule="evenodd"/><path fill="#000000" d="m114.62099 521.07886q2.75 0.578125 4.109375 1.875q1.90625 1.796875 1.90625 4.390625q0 1.96875 -1.25 3.78125q-1.25 1.8125 -3.4375 2.640625q-2.171875 0.828125 -6.640625 0.828125l-12.5 0l0 -0.71875l0.984375 0q1.671875 0 2.390625 -1.0625q0.453125 -0.6875 0.453125 -2.90625l0 -17.109375q0 -2.46875 -0.578125 -3.109375q-0.75 -0.859375 -2.265625 -0.859375l-0.984375 0l0 -0.71875l11.4375 0q3.203125 0 5.140625 0.46875q2.921875 0.703125 4.46875 2.5q1.546875 1.78125 1.546875 4.09375q0 2.0 -1.21875 3.578125q-1.203125 1.5625 -3.5625 2.328125zm-10.234375 -1.0625q0.71875 0.140625 1.640625 0.21875q0.9375 0.0625 2.046875 0.0625q2.84375 0 4.28125 -0.609375q1.4375 -0.625 2.203125 -1.890625q0.765625 -1.265625 0.765625 -2.78125q0 -2.3125 -1.90625 -3.953125q-1.890625 -1.640625 -5.515625 -1.640625q-1.953125 0 -3.515625 0.421875l0 10.171875zm0 12.65625q2.265625 0.53125 4.46875 0.53125q3.53125 0 5.390625 -1.59375q1.859375 -1.59375 1.859375 -3.9375q0 -1.53125 -0.84375 -2.953125q-0.84375 -1.4375 -2.734375 -2.25q-1.890625 -0.828125 -4.6875 -0.828125q-1.21875 0 -2.078125 0.046875q-0.859375 0.03125 -1.375 0.125l0 10.859375zm18.664062 -15.96875l8.34375 0l0 0.71875l-0.40625 0q-0.890625 0 -1.328125 0.390625q-0.4375 0.375 -0.4375 0.9375q0 0.765625 0.640625 2.109375l4.359375 9.03125l4.0 -9.890625q0.34375 -0.796875 0.34375 -1.578125q0 -0.359375 -0.140625 -0.53125q-0.15625 -0.21875 -0.5 -0.34375q-0.328125 -0.125 -1.15625 -0.125l0 -0.71875l5.8125 0l0 0.71875q-0.71875 0.078125 -1.109375 0.3125q-0.390625 0.234375 -0.859375 0.875q-0.171875 0.28125 -0.671875 1.515625l-7.28125 17.84375q-1.046875 2.609375 -2.765625 3.9375q-1.703125 1.328125 -3.28125 1.328125q-1.15625 0 -1.90625 -0.671875q-0.734375 -0.65625 -0.734375 -1.515625q0 -0.828125 0.53125 -1.328125q0.546875 -0.5 1.484375 -0.5q0.640625 0 1.75 0.4375q0.78125 0.296875 0.984375 0.296875q0.578125 0 1.265625 -0.609375q0.703125 -0.609375 1.40625 -2.34375l1.265625 -3.109375l-6.421875 -13.5q-0.296875 -0.609375 -0.9375 -1.5q-0.484375 -0.6875 -0.796875 -0.921875q-0.453125 -0.3125 -1.453125 -0.546875l0 -0.71875zm52.703125 10.5625l0.640625 0.140625l-2.265625 7.1875l-20.515625 0l0 -0.71875l1.0 0q1.6875 0 2.40625 -1.09375q0.40625 -0.625 0.40625 -2.890625l0 -17.09375q0 -2.484375 -0.546875 -3.109375q-0.765625 -0.859375 -2.265625 -0.859375l-1.0 0l0 -0.71875l12.0 0l0 0.71875q-2.109375 -0.015625 -2.96875 0.390625q-0.84375 0.40625 -1.15625 1.03125q-0.3125 0.625 -0.3125 3.0l0 16.640625q0 1.609375 0.3125 2.21875q0.234375 0.40625 0.71875 0.609375q0.5 0.1875 3.046875 0.1875l1.9375 0q3.046875 0 4.28125 -0.4375q1.234375 -0.453125 2.25 -1.59375q1.015625 -1.140625 2.03125 -3.609375zm-0.4765625 -10.5625l8.34375 0l0 0.71875l-0.40625 0q-0.890625 0 -1.328125 0.390625q-0.4375 0.375 -0.4375 0.9375q0 0.765625 0.640625 2.109375l4.359375 9.03125l4.0 -9.890625q0.34375 -0.796875 0.34375 -1.578125q0 -0.359375 -0.140625 -0.53125q-0.15625 -0.21875 -0.5 -0.34375q-0.328125 -0.125 -1.15625 -0.125l0 -0.71875l5.8125 0l0 0.71875q-0.71875 0.078125 -1.109375 0.3125q-0.390625 0.234375 -0.859375 0.875q-0.171875 0.28125 -0.671875 1.515625l-7.28125 17.84375q-1.046875 2.609375 -2.765625 3.9375q-1.703125 1.328125 -3.28125 1.328125q-1.15625 0 -1.90625 -0.671875q-0.734375 -0.65625 -0.734375 -1.515625q0 -0.828125 0.53125 -1.328125q0.546875 -0.5 1.484375 -0.5q0.640625 0 1.75 0.4375q0.78125 0.296875 0.984375 0.296875q0.578125 0 1.265625 -0.609375q0.703125 -0.609375 1.40625 -2.34375l1.265625 -3.109375l-6.421875 -13.5q-0.296875 -0.609375 -0.9375 -1.5q-0.484375 -0.6875 -0.796875 -0.921875q-0.453125 -0.3125 -1.453125 -0.546875l0 -0.71875zm26.234375 3.265625q3.140625 -3.796875 6.0 -3.796875q1.453125 0 2.5 0.734375q1.0625 0.734375 1.6875 2.40625q0.4375 1.171875 0.4375 3.59375l0 7.640625q0 1.703125 0.265625 2.3125q0.21875 0.484375 0.6875 0.765625q0.484375 0.265625 1.78125 0.265625l0 0.703125l-8.84375 0l0 -0.703125l0.359375 0q1.25 0 1.75 -0.375q0.5 -0.390625 0.703125 -1.125q0.078125 -0.296875 0.078125 -1.84375l0 -7.328125q0 -2.4375 -0.640625 -3.53125q-0.640625 -1.109375 -2.140625 -1.109375q-2.328125 0 -4.625 2.53125l0 9.4375q0 1.8125 0.21875 2.25q0.265625 0.5625 0.734375 0.828125q0.484375 0.265625 1.953125 0.265625l0 0.703125l-8.84375 0l0 -0.703125l0.390625 0q1.359375 0 1.84375 -0.6875q0.484375 -0.703125 0.484375 -2.65625l0 -6.640625q0 -3.21875 -0.15625 -3.921875q-0.140625 -0.703125 -0.453125 -0.953125q-0.296875 -0.265625 -0.796875 -0.265625q-0.546875 0 -1.3125 0.296875l-0.296875 -0.703125l5.390625 -2.1875l0.84375 0l0 3.796875zm17.796875 3.46875q-0.03125 3.984375 1.921875 6.25q1.953125 2.265625 4.59375 2.265625q1.765625 0 3.0625 -0.96875q1.296875 -0.96875 2.171875 -3.3125l0.609375 0.390625q-0.40625 2.6875 -2.390625 4.890625q-1.96875 2.1875 -4.9375 2.1875q-3.21875 0 -5.515625 -2.5q-2.296875 -2.515625 -2.296875 -6.765625q0 -4.578125 2.34375 -7.140625q2.359375 -2.578125 5.921875 -2.578125q3.0 0 4.9375 1.984375q1.9375 1.984375 1.9375 5.296875l-12.359375 0zm0 -1.125l8.28125 0q-0.109375 -1.71875 -0.421875 -2.421875q-0.484375 -1.09375 -1.453125 -1.71875q-0.96875 -0.625 -2.015625 -0.625q-1.625 0 -2.90625 1.265625q-1.28125 1.25 -1.484375 3.5zm19.941406 -11.484375l0 5.875l4.171875 0l0 1.359375l-4.171875 0l0 11.609375q0 1.734375 0.484375 2.34375q0.5 0.609375 1.28125 0.609375q0.65625 0 1.25 -0.40625q0.609375 -0.40625 0.9375 -1.1875l0.765625 0q-0.6875 1.921875 -1.9375 2.890625q-1.25 0.96875 -2.578125 0.96875q-0.890625 0 -1.75 -0.5q-0.859375 -0.5 -1.28125 -1.421875q-0.40625 -0.9375 -0.40625 -2.875l0 -12.03125l-2.828125 0l0 -0.640625q1.078125 -0.421875 2.203125 -1.453125q1.125 -1.03125 2.0 -2.4375q0.453125 -0.734375 1.25 -2.703125l0.609375 0zm11.113281 0l0 5.875l4.171875 0l0 1.359375l-4.171875 0l0 11.609375q0 1.734375 0.484375 2.34375q0.5 0.609375 1.28125 0.609375q0.65625 0 1.25 -0.40625q0.609375 -0.40625 0.9375 -1.1875l0.765625 0q-0.6875 1.921875 -1.9375 2.890625q-1.25 0.96875 -2.578125 0.96875q-0.890625 0 -1.75 -0.5q-0.859375 -0.5 -1.28125 -1.421875q-0.40625 -0.9375 -0.40625 -2.875l0 -12.03125l-2.828125 0l0 -0.640625q1.078125 -0.421875 2.203125 -1.453125q1.125 -1.03125 2.0 -2.4375q0.453125 -0.734375 1.25 -2.703125l0.609375 0zm8.925766 12.609375q-0.03125 3.984375 1.921875 6.25q1.953125 2.265625 4.59375 2.265625q1.765625 0 3.0625 -0.96875q1.296875 -0.96875 2.171875 -3.3125l0.609375 0.390625q-0.40625 2.6875 -2.390625 4.890625q-1.96875 2.1875 -4.9375 2.1875q-3.21875 0 -5.515625 -2.5q-2.296875 -2.515625 -2.296875 -6.765625q0 -4.578125 2.34375 -7.140625q2.359375 -2.578125 5.921875 -2.578125q3.0 0 4.9375 1.984375q1.9375 1.984375 1.9375 5.296875l-12.359375 0zm0 -1.125l8.28125 0q-0.109375 -1.71875 -0.421875 -2.421875q-0.484375 -1.09375 -1.453125 -1.71875q-0.96875 -0.625 -2.015625 -0.625q-1.625 0 -2.90625 1.265625q-1.28125 1.25 -1.484375 3.5z" fill-rule="nonzero"/></g></svg>